<?xml version="1.0" encoding="UTF-8"?>
<!DOCTYPE svg PUBLIC "-//W3C//DTD SVG 1.1//EN" "http://www.w3.org/Graphics/SVG/1.1/DTD/svg11.dtd">
<!-- Creator: CorelDRAW 2020 (64-Bit) -->
<svg xmlns="http://www.w3.org/2000/svg" xml:space="preserve" width="165px" height="51px" version="1.1" style="shape-rendering:geometricPrecision; text-rendering:geometricPrecision; image-rendering:optimizeQuality; fill-rule:evenodd; clip-rule:evenodd"
viewBox="0 0 165 51.09"
 xmlns:xlink="http://www.w3.org/1999/xlink"
 xmlns:xodm="http://www.corel.com/coreldraw/odm/2003">
 <defs>
  <style type="text/css">
   <![CDATA[
    .fil0 {fill:#1759B5}
   ]]>
  </style>
 </defs>
 <g id="Слой_x0020_1">
  <metadata id="CorelCorpID_0Corel-Layer"/>
  <path class="fil0" d="M31.67 41.11l-7.03 0 0 -3.13 -0.08 0c-1.6,2.46 -3.96,3.69 -7.05,3.69 -2.85,0 -5.14,-1 -6.87,-3.01 -1.74,-2.01 -2.6,-4.82 -2.6,-8.42 0,-3.76 0.95,-6.78 2.86,-9.05 1.92,-2.26 4.42,-3.4 7.52,-3.4 2.93,0 4.98,1.05 6.14,3.16l0.08 0 0 -13.54 7.03 0 0 33.7zm-25.1 -40.61l72.19 0 0 40.61 7.02 0 0 -40.61 71.37 0c3.97,0 7.21,3.24 7.21,7.21l0 36.67c0,3.97 -3.24,7.21 -7.21,7.21l-99.6 0 0 -13.12 0.09 0c1.44,2.14 3.52,3.2 6.26,3.2 3.12,0 5.61,-1.15 7.49,-3.45 1.87,-2.3 2.81,-5.34 2.81,-9.13 0,-3.49 -0.8,-6.24 -2.41,-8.26 -1.61,-2.03 -3.89,-3.04 -6.84,-3.04 -3.14,0 -5.58,1.33 -7.31,3.98l-0.09 0 0 -3.42 -7.02 0 0 33.24 -43.96 0c-3.97,0 -7.21,-3.24 -7.21,-7.21l0 -36.67c0,-3.97 3.24,-7.21 7.21,-7.21zm18.21 29.54l0 -1.71c0,-1.48 -0.44,-2.71 -1.29,-3.69 -0.86,-0.98 -1.98,-1.47 -3.36,-1.47 -1.55,0 -2.77,0.61 -3.65,1.83 -0.87,1.23 -1.31,2.91 -1.31,5.04 0,2.01 0.42,3.55 1.27,4.62 0.85,1.09 2.02,1.63 3.51,1.63 1.43,0 2.59,-0.57 3.48,-1.71 0.9,-1.15 1.35,-2.66 1.35,-4.54zm16.36 -15.3c-1.18,0 -2.16,-0.35 -2.91,-1.05 -0.76,-0.71 -1.14,-1.56 -1.14,-2.59 0,-1.05 0.38,-1.91 1.14,-2.58 0.75,-0.67 1.73,-1 2.91,-1 1.2,0 2.18,0.33 2.93,1 0.74,0.67 1.12,1.53 1.12,2.58 0,1.06 -0.38,1.94 -1.12,2.63 -0.75,0.67 -1.73,1.01 -2.93,1.01zm3.47 26.37l-7.02 0 0 -22.76 7.02 0 0 22.76zm12.83 -11.98l0 1.82c0,1.57 0.41,2.86 1.24,3.85 0.83,1 1.92,1.49 3.27,1.49 1.6,0 2.84,-0.62 3.72,-1.85 0.88,-1.24 1.33,-2.99 1.33,-5.26 0,-4.01 -1.55,-6.01 -4.67,-6.01 -1.44,0 -2.61,0.54 -3.53,1.64 -0.91,1.09 -1.36,2.53 -1.36,4.32zm45.11 12.54c-3.8,0 -6.78,-1.06 -8.95,-3.19 -2.17,-2.12 -3.26,-5.01 -3.26,-8.66 0,-3.76 1.13,-6.71 3.38,-8.84 2.25,-2.12 5.3,-3.19 9.14,-3.19 3.78,0 6.74,1.07 8.89,3.19 2.15,2.13 3.23,4.94 3.23,8.44 0,3.78 -1.11,6.77 -3.33,8.96 -2.21,2.2 -5.25,3.29 -9.1,3.29zm0.18 -18.5c-1.66,0 -2.95,0.57 -3.87,1.71 -0.92,1.15 -1.38,2.76 -1.38,4.85 0,4.37 1.76,6.56 5.29,6.56 3.37,0 5.05,-2.25 5.05,-6.73 0,-4.26 -1.7,-6.39 -5.09,-6.39zm52.95 17.94l-7 0 0 -12.98c0,-3.31 -1.22,-4.96 -3.65,-4.96 -1.15,0 -2.09,0.5 -2.82,1.49 -0.73,1 -1.09,2.23 -1.09,3.71l0 12.74 -7.02 0 0 -13.12c0,-3.21 -1.2,-4.82 -3.58,-4.82 -1.2,0 -2.16,0.48 -2.88,1.42 -0.72,0.95 -1.08,2.24 -1.08,3.87l0 12.65 -7.02 0 0 -22.76 7.02 0 0 3.56 0.09 0c0.73,-1.22 1.74,-2.21 3.06,-2.97 1.31,-0.77 2.74,-1.15 4.3,-1.15 3.22,0 5.42,1.42 6.6,4.25 1.74,-2.83 4.28,-4.25 7.65,-4.25 4.95,0 7.42,3.06 7.42,9.16l0 14.16z"/>
 </g>
</svg>
