<?xml version="1.0" encoding="UTF-8"?>
<!DOCTYPE svg PUBLIC "-//W3C//DTD SVG 1.1//EN" "http://www.w3.org/Graphics/SVG/1.1/DTD/svg11.dtd">
<!-- Creator: CorelDRAW 2020 (64-Bit) -->
<svg xmlns="http://www.w3.org/2000/svg" xml:space="preserve" width="165px" height="51px" version="1.1" style="shape-rendering:geometricPrecision; text-rendering:geometricPrecision; image-rendering:optimizeQuality; fill-rule:evenodd; clip-rule:evenodd"
viewBox="0 0 165 51.09"
 xmlns:xlink="http://www.w3.org/1999/xlink"
 xmlns:xodm="http://www.corel.com/coreldraw/odm/2003">
 <defs>
  <style type="text/css">
   <![CDATA[
    .fil0 {fill:#1759B5}
   ]]>
  </style>
 </defs>
 <g id="Слой_x0020_1">
  <metadata id="CorelCorpID_0Corel-Layer"/>
  <path class="fil0" d="M5.46 8.67l12.4 0c2.79,0 4.93,0.21 6.39,0.64 1.97,0.58 3.66,1.62 5.06,3.11 1.41,1.48 2.48,3.29 3.21,5.45 0.73,2.14 1.1,4.8 1.1,7.95 0,2.77 -0.34,5.16 -1.03,7.16 -0.84,2.45 -2.04,4.43 -3.6,5.95 -1.17,1.15 -2.77,2.04 -4.76,2.68 -1.5,0.48 -3.5,0.72 -6,0.72l-12.77 0 0 -33.66zm1.11 -8.17l150.58 0c3.97,0 7.21,3.24 7.21,7.21l0 36.67c0,3.97 -3.24,7.21 -7.21,7.21l-98.48 0 0 -12.21c1.21,1.3 2.37,2.22 3.46,2.75 1.1,0.54 2.32,0.81 3.67,0.81 2.83,0 5.24,-1.13 7.23,-3.39 1.99,-2.27 2.99,-5.43 2.99,-9.51 0,-3.97 -0.99,-7.07 -2.96,-9.29 -1.98,-2.22 -4.38,-3.34 -7.21,-3.34 -1.62,0 -3.1,0.38 -4.43,1.13 -1.34,0.76 -2.39,1.75 -3.17,2.97l0 -3.58 -6.02 0 0 33.66 -45.66 0c-3.97,0 -7.21,-3.24 -7.21,-7.21l0 -36.67c0,-3.97 3.24,-7.21 7.21,-7.21zm5.71 13.86l0 22.28 5.05 0c1.89,0 3.25,-0.11 4.09,-0.32 1.11,-0.28 2.02,-0.75 2.74,-1.4 0.72,-0.66 1.31,-1.74 1.77,-3.25 0.46,-1.5 0.69,-3.56 0.69,-6.16 0,-2.6 -0.23,-4.59 -0.69,-5.99 -0.46,-1.39 -1.1,-2.47 -1.92,-3.26 -0.82,-0.77 -1.87,-1.31 -3.14,-1.58 -0.94,-0.21 -2.79,-0.32 -5.55,-0.32l-3.04 0zm27.08 0.28l0 -5.97 6.44 0 0 5.97 -6.44 0zm0 27.69l0 -24.4 6.44 0 0 24.4 -6.44 0zm19.22 -12.58c0,2.75 0.54,4.78 1.63,6.1 1.08,1.31 2.4,1.96 3.96,1.96 1.49,0 2.74,-0.6 3.73,-1.81 1,-1.2 1.49,-3.18 1.49,-5.93 0,-2.56 -0.51,-4.47 -1.53,-5.71 -1.02,-1.25 -2.29,-1.87 -3.8,-1.87 -1.58,0 -2.89,0.61 -3.92,1.83 -1.04,1.23 -1.56,3.04 -1.56,5.43zm22.55 12.58l0 -33.66 6.44 0 0 33.66 -6.44 0zm11.56 -12.5c0,-2.15 0.52,-4.22 1.58,-6.23 1.06,-2.01 2.56,-3.54 4.49,-4.6 1.94,-1.05 4.09,-1.59 6.48,-1.59 3.69,0 6.71,1.2 9.06,3.6 2.36,2.41 3.54,5.43 3.54,9.1 0,3.69 -1.19,6.76 -3.57,9.18 -2.38,2.43 -5.37,3.65 -8.98,3.65 -2.24,0 -4.37,-0.51 -6.4,-1.52 -2.02,-1.01 -3.56,-2.49 -4.62,-4.45 -1.06,-1.95 -1.58,-4.33 -1.58,-7.14zm6.63 0.35c0,2.42 0.57,4.27 1.71,5.56 1.15,1.29 2.56,1.93 4.25,1.93 1.68,0 3.09,-0.64 4.22,-1.93 1.14,-1.29 1.71,-3.16 1.71,-5.61 0,-2.39 -0.57,-4.23 -1.71,-5.52 -1.13,-1.29 -2.54,-1.93 -4.22,-1.93 -1.69,0 -3.1,0.64 -4.25,1.93 -1.14,1.29 -1.71,3.15 -1.71,5.57zm23.11 -12.25l5.93 0 0 3.33c2.12,-2.56 4.65,-3.85 7.59,-3.85 1.56,0 2.91,0.33 4.06,0.97 1.15,0.64 2.09,1.61 2.82,2.91 1.07,-1.3 2.23,-2.27 3.47,-2.91 1.24,-0.64 2.56,-0.97 3.97,-0.97 1.79,0 3.3,0.37 4.54,1.09 1.24,0.73 2.17,1.8 2.78,3.21 0.44,1.03 0.66,2.72 0.66,5.04l0 15.58 -6.44 0 0 -13.92c0,-2.43 -0.22,-3.98 -0.66,-4.68 -0.6,-0.92 -1.52,-1.38 -2.76,-1.38 -0.9,0 -1.75,0.27 -2.55,0.82 -0.8,0.56 -1.38,1.37 -1.73,2.42 -0.35,1.07 -0.52,2.75 -0.52,5.04l0 11.7 -6.44 0 0 -13.35c0,-2.37 -0.12,-3.9 -0.35,-4.59 -0.22,-0.69 -0.58,-1.2 -1.06,-1.54 -0.48,-0.34 -1.14,-0.5 -1.96,-0.5 -1,0 -1.89,0.27 -2.68,0.8 -0.8,0.54 -1.36,1.31 -1.71,2.32 -0.34,1.01 -0.52,2.68 -0.52,5.02l0 11.84 -6.44 0 0 -24.4z"/>
 </g>
</svg>
